<?xml version="1.0" encoding="UTF-8" standalone="no"?>
<!-- Generated by IcoMoon.io -->

<svg
   xmlns:dc="http://purl.org/dc/elements/1.1/"
   xmlns:cc="http://creativecommons.org/ns#"
   xmlns:rdf="http://www.w3.org/1999/02/22-rdf-syntax-ns#"
   xmlns:svg="http://www.w3.org/2000/svg"
   xmlns="http://www.w3.org/2000/svg"
   xmlns:sodipodi="http://sodipodi.sourceforge.net/DTD/sodipodi-0.dtd"
   xmlns:inkscape="http://www.inkscape.org/namespaces/inkscape"
   version="1.1"
   width="34"
   height="32"
   viewBox="0 0 34 32"
   id="svg3016"
   inkscape:version="0.48.5 r10040"
   sodipodi:docname="credit-card.svg">
  <metadata
     id="metadata3027">
    <rdf:RDF>
      <cc:Work
         rdf:about="">
        <dc:format>image/svg+xml</dc:format>
        <dc:type
           rdf:resource="http://purl.org/dc/dcmitype/StillImage" />
        <dc:title></dc:title>
      </cc:Work>
    </rdf:RDF>
  </metadata>
  <defs
     id="defs3025" />
  <sodipodi:namedview
     pagecolor="#ffffff"
     bordercolor="#666666"
     borderopacity="1"
     objecttolerance="10"
     gridtolerance="10"
     guidetolerance="10"
     inkscape:pageopacity="0"
     inkscape:pageshadow="2"
     inkscape:window-width="1920"
     inkscape:window-height="1018"
     id="namedview3023"
     showgrid="false"
     showguides="true"
     inkscape:guide-bbox="true"
     inkscape:zoom="2.83"
     inkscape:cx="18.438183"
     inkscape:cy="18.305085"
     inkscape:window-x="1912"
     inkscape:window-y="-8"
     inkscape:window-maximized="1"
     inkscape:current-layer="g3047" />
  <g
     id="icomoon-ignore">
    <line
       stroke-width="1"
       x1=""
       y1=""
       x2=""
       y2=""
       stroke="#449FDB"
       opacity=""
       id="line3019" />
  </g>
  <path
     style="fill:#000000"
     d="m 2.84375,2.28125 c -0.786,0 -1.4406667,0.2844167 -2,0.84375 C 0.28441667,3.6843333 0,4.37025 0,5.15625 l 0,21.6875 c 0,0.786 0.28441667,1.471917 0.84375,2.03125 0.5593333,0.559333 1.214,0.84375 2,0.84375 l 28.59375,0 c 0.786,0 1.440667,-0.284417 2,-0.84375 0.559333,-0.559333 0.84375,-1.24525 0.84375,-2.03125 l 0,-21.6875 c 0,-0.786 -0.284417,-1.4719167 -0.84375,-2.03125 -0.559333,-0.5593333 -1.214,-0.84375 -2,-0.84375 z M 32,26.84375 c 0,0.154667 -0.04292,0.292917 -0.15625,0.40625 -0.113333,0.11333 -0.251583,0.1875 -0.40625,0.1875 l -28.59375,0 c -0.1546667,0 -0.2616667,-0.07417 -0.375,-0.1875 -0.113333,-0.113333 -0.1875,-0.251583 -0.1875,-0.40625 -4.937e-4,-15.121984 4.118e-4,-15.105613 0,-21.6875 0,-0.1546667 0.074167,-0.2929167 0.1875,-0.40625 0.1133333,-0.113333 0.2203333,-0.1875 0.375,-0.1875 l 28.59375,0 c 0.154667,0 0.292917,0.074167 0.40625,0.1875 C 31.957083,4.8633333 32,5.0015833 32,5.15625 c 0,7.834033 0,13.935767 0,21.6875 z"
     id="path3021"
     inkscape:connector-curvature="0"
     sodipodi:nodetypes="ssssssssssssscssssccsssscc" />
  <g
     id="g3047"
     transform="translate(-6.0169153,0.03706779)">
    <g
       id="icomoon-ignore-1">
      <line
         id="line3037"
         opacity=""
         y2="0"
         x2="0"
         y1="0"
         x1="0"
         style="stroke:#449fdb;stroke-width:1" />
    </g>
    <path
       id="path3039"
       d="m 11.537197,18.110189 q 0,-0.452917 0.0293,-0.884768 0.0293,-0.431851 0.116278,-0.931688 0.08698,-0.499837 0.219997,-0.927858 0.133023,-0.428021 0.357206,-0.83354 0.224184,-0.405518 0.514879,-0.692302 0.290694,-0.286783 0.710224,-0.457227 0.419531,-0.170441 0.926037,-0.170921 0.07489,0 0.348833,0.183848 0.273951,0.183848 0.618598,0.410307 0.344648,0.226459 0.8972,0.410307 0.552552,0.183847 1.108825,0.183847 0.556274,0 1.108826,-0.183847 0.552552,-0.183848 0.897199,-0.410307 0.344648,-0.226459 0.618598,-0.410307 0.273951,-0.183848 0.348833,-0.183848 0.506507,0 0.926037,0.170921 0.419531,0.170921 0.710226,0.457227 0.290694,0.286304 0.514877,0.692302 0.224184,0.405998 0.357205,0.83354 0.133022,0.427542 0.219999,0.927858 0.08697,0.500316 0.116277,0.931688 0.0293,0.431372 0.0293,0.884768 0,1.026006 -0.606504,1.62016 -0.606506,0.594155 -1.611146,0.594155 h -7.25899 q -1.005106,0 -1.611146,-0.594155 -0.606043,-0.594154 -0.606508,-1.62016 z m 2.657646,-7.634478 q 0,-1.3592305 0.934408,-2.3210809 0.93441,-0.9618505 2.25486,-0.9618505 1.320452,0 2.25486,0.9618505 0.934408,0.9618504 0.934408,2.3210809 0,1.35923 -0.934408,2.32108 -0.934408,0.961851 -2.25486,0.961851 -1.32045,0 -2.25486,-0.961851 -0.934408,-0.96185 -0.934408,-2.32108 z"
       inkscape:connector-curvature="0"
       style="fill:#000000" />
    <g
       id="icomoon-ignore-7"
       transform="matrix(0.49266032,0,0,0.49266032,91.715772,-8.3050812)">
      <line
         style="stroke:#449fdb;stroke-width:1"
         x1="0"
         y1="0"
         x2="0"
         y2="0"
         opacity=""
         id="line3055" />
    </g>
    <path
       sodipodi:nodetypes="csscsscsscssccsscsscsscssccsscsscsscssc"
       style="fill:#000000"
       inkscape:connector-curvature="0"
       d="m 25.814375,18.532938 0,-1.126222 c 0,-0.152396 0.05567,-0.284429 0.167012,-0.396098 0.111341,-0.11167 0.243374,-0.167341 0.396099,-0.167012 l 8.386958,0 c 0.152397,0 0.28443,0.05567 0.396099,0.167012 0.11167,0.111341 0.167341,0.243374 0.167012,0.396098 l 0,1.126222 c 0,0.152396 -0.05567,0.284429 -0.167012,0.396099 -0.111341,0.11167 -0.243374,0.16734 -0.396099,0.167012 l -8.386958,0 c -0.152396,0 -0.284429,-0.05567 -0.396099,-0.167012 -0.111669,-0.111341 -0.16734,-0.243374 -0.167012,-0.396099 z m 0,-4.504393 0,-1.126222 c 0,-0.152396 0.05567,-0.284429 0.167012,-0.396098 0.111341,-0.11167 0.243374,-0.167341 0.396099,-0.167012 l 8.386958,0 c 0.152397,0 0.28443,0.05567 0.396099,0.167012 0.11167,0.111341 0.167341,0.243374 0.167012,0.396098 l 0,1.126222 c 0,0.152396 -0.05567,0.284429 -0.167012,0.396099 -0.111341,0.11167 -0.243374,0.16734 -0.396099,0.167012 l -8.386958,0 c -0.152396,0 -0.284429,-0.05567 -0.396099,-0.167012 -0.111669,-0.111341 -0.16734,-0.243374 -0.167012,-0.396099 z m 0,-4.504393 0,-1.1262218 c 0,-0.1523961 0.05567,-0.284429 0.167012,-0.3960989 0.111341,-0.1116698 0.243374,-0.1673404 0.396099,-0.1670118 l 8.386958,0 c 0.152397,0 0.28443,0.055671 0.396099,0.1670118 0.11167,0.1113412 0.167341,0.2433742 0.167012,0.3960989 l 0,1.1262218 c 0,0.152396 -0.05567,0.284429 -0.167012,0.396099 -0.111341,0.111669 -0.243374,0.16734 -0.396099,0.167011 l -8.386958,0 c -0.152396,0 -0.284429,-0.05567 -0.396099,-0.167011 -0.111669,-0.111342 -0.16734,-0.243375 -0.167012,-0.396099 z"
       id="path3057" />
    <path
       sodipodi:nodetypes="csscsscsscssc"
       style="fill:#000000"
       inkscape:connector-curvature="0"
       d="m 10.621076,24.28928 0,-1.126221 c 0,-0.152396 0.05567,-0.284429 0.167012,-0.396099 0.111341,-0.11167 0.243374,-0.167341 0.396099,-0.167012 l 23.988818,0 c 0.152396,0 0.284429,0.05567 0.396099,0.167012 0.11167,0.111341 0.16734,0.243374 0.167012,0.396099 l 0,1.126221 c 0,0.152396 -0.05567,0.284429 -0.167012,0.396099 -0.111341,0.11167 -0.243374,0.16734 -0.396099,0.167012 l -23.988818,0 c -0.152396,0 -0.284429,-0.05567 -0.396099,-0.167012 -0.111669,-0.111341 -0.16734,-0.243374 -0.167012,-0.396099 z"
       id="path3057-4" />
  </g>
</svg>
